<svg width="500" height="500" viewBox="0 0 500 500" fill="none" xmlns="http://www.w3.org/2000/svg">
<path d="M453.182 144.82C450.772 126.05 446.062 108.06 436.182 91.68C417.892 61.22 385.002 42.83 351.562 33.49C323.562 25.67 293.412 23.42 265.472 31.49C234.812 40.35 209.092 60.77 181.472 76.78C161.259 88.333 140.155 98.2513 118.362 106.44C100.792 113.18 78.4516 117 64.0016 129.74C55.1605 137.634 47.3188 146.581 40.6516 156.38C13.6516 195.69 4.89163 245.91 9.06163 292.79C11.9616 325.46 20.9416 358.5 41.0616 384.38C69.3416 420.68 117.862 438.57 163.662 434.06C215.662 428.94 264.902 397.88 316.592 405.33C342.312 409.04 366.942 422.26 392.812 419.81C418.322 417.38 440.162 399.81 455.552 379.35C467.892 362.92 476.102 343.06 476.862 322.35C477.682 299.95 467.542 279.53 462.462 258.15C453.592 220.79 458.002 182.56 453.182 144.82Z" fill="#FF6969"/>
<path opacity="0.7" d="M453.182 144.82C450.772 126.05 446.062 108.06 436.182 91.68C417.892 61.22 385.002 42.83 351.562 33.49C323.562 25.67 293.412 23.42 265.472 31.49C234.812 40.35 209.092 60.77 181.472 76.78C161.259 88.333 140.155 98.2513 118.362 106.44C100.792 113.18 78.4516 117 64.0016 129.74C55.1605 137.634 47.3188 146.581 40.6516 156.38C13.6516 195.69 4.89163 245.91 9.06163 292.79C11.9616 325.46 20.9416 358.5 41.0616 384.38C69.3416 420.68 117.862 438.57 163.662 434.06C215.662 428.94 264.902 397.88 316.592 405.33C342.312 409.04 366.942 422.26 392.812 419.81C418.322 417.38 440.162 399.81 455.552 379.35C467.892 362.92 476.102 343.06 476.862 322.35C477.682 299.95 467.542 279.53 462.462 258.15C453.592 220.79 458.002 182.56 453.182 144.82Z" fill="white"/>
<path d="M65.8594 424.8H479.569" stroke="#272F39" stroke-linecap="round" stroke-linejoin="round"/>
<path d="M20.5391 424.8H58.0891" stroke="#272F39" stroke-linecap="round" stroke-linejoin="round"/>
<path opacity="0.3" d="M433.498 140.74L423.548 107.65C426.659 106.008 429.132 103.371 430.571 100.16C432.009 96.9496 432.332 93.3495 431.486 89.9341C430.64 86.5188 428.675 83.4851 425.904 81.3167C423.133 79.1483 419.716 77.9702 416.198 77.9702C412.679 77.9702 409.262 79.1483 406.491 81.3167C403.72 83.4851 401.755 86.5188 400.909 89.9341C400.064 93.3495 400.386 96.9496 401.825 100.16C403.263 103.371 405.736 106.008 408.848 107.65L398.848 140.74H433.498Z" stroke="#272F39" stroke-miterlimit="10"/>
<path opacity="0.3" d="M249.11 326.57L239.11 293.48C242.222 291.838 244.694 289.201 246.133 285.991C247.572 282.78 247.894 279.179 247.048 275.764C246.203 272.349 244.238 269.315 241.467 267.147C238.696 264.978 235.279 263.8 231.76 263.8C228.242 263.8 224.825 264.978 222.054 267.147C219.283 269.315 217.318 272.349 216.472 275.764C215.626 279.179 215.948 282.78 217.387 285.991C218.826 289.201 221.298 291.838 224.41 293.48L214.41 326.57H249.11Z" stroke="#272F39" stroke-miterlimit="10"/>
<path opacity="0.3" d="M62.4089 387L55.5689 364.26C57.7066 363.132 59.4049 361.32 60.3932 359.115C61.3814 356.909 61.6027 354.436 61.0216 352.089C60.4405 349.743 59.0905 347.659 57.187 346.17C55.2835 344.68 52.936 343.871 50.5189 343.871C48.1018 343.871 45.7544 344.68 43.8508 346.17C41.9473 347.659 40.5974 349.743 40.0163 352.089C39.4352 354.436 39.6564 356.909 40.6446 359.115C41.6329 361.32 43.3312 363.132 45.4689 364.26L38.6289 387H62.4089Z" stroke="#272F39" stroke-miterlimit="10"/>
<path opacity="0.3" d="M96.29 152.94L92 138.8C93.3298 138.098 94.3865 136.972 95.0014 135.6C95.6163 134.228 95.7541 132.689 95.3928 131.23C95.0314 129.771 94.1918 128.474 93.0078 127.547C91.8237 126.621 90.3635 126.117 88.86 126.117C87.3565 126.117 85.8963 126.621 84.7122 127.547C83.5282 128.474 82.6886 129.771 82.3272 131.23C81.9659 132.689 82.1037 134.228 82.7186 135.6C83.3335 136.972 84.3902 138.098 85.72 138.8L81.5 152.94H96.29Z" stroke="#272F39" stroke-miterlimit="10"/>
<path opacity="0.3" d="M369.649 207.5L365.389 193.36C366.719 192.658 367.776 191.532 368.391 190.16C369.006 188.788 369.143 187.249 368.782 185.79C368.421 184.331 367.581 183.034 366.397 182.107C365.213 181.181 363.753 180.677 362.249 180.677C360.746 180.677 359.286 181.181 358.102 182.107C356.918 183.034 356.078 184.331 355.717 185.79C355.355 187.249 355.493 188.788 356.108 190.16C356.723 191.532 357.78 192.658 359.109 193.36L354.859 207.5H369.649Z" stroke="#272F39" stroke-miterlimit="10"/>
<path opacity="0.3" d="M464.36 353.11L460.1 339C461.43 338.298 462.487 337.172 463.102 335.8C463.717 334.428 463.854 332.889 463.493 331.43C463.132 329.971 462.292 328.674 461.108 327.747C459.924 326.821 458.464 326.317 456.96 326.317C455.457 326.317 453.997 326.821 452.813 327.747C451.629 328.674 450.789 329.971 450.428 331.43C450.066 332.889 450.204 334.428 450.819 335.8C451.434 337.172 452.49 338.298 453.82 339L449.57 353.13L464.36 353.11Z" stroke="#272F39" stroke-miterlimit="10"/>
<path d="M389.727 258.32C389.727 258.32 375.647 250.5 374.607 268.22C373.567 285.94 370.957 401.22 370.957 401.22" stroke="#272F39" stroke-width="2" stroke-miterlimit="10" stroke-linecap="round"/>
<path d="M367.297 269.79C367.297 269.79 378.777 295.34 373.567 399.62" stroke="#272F39" stroke-width="2" stroke-miterlimit="10" stroke-linecap="round"/>
<path d="M378.577 261.89C378.577 261.89 373.187 265.34 370.127 261.39C367.067 257.44 372.197 250.2 367.667 247.11C363.137 244.02 355.327 248.74 355.327 248.74C355.327 248.74 361.327 250.51 361.157 253.74C360.987 256.97 358.057 258.27 357.677 256.83C357.297 255.39 354.417 248.16 349.527 251.17C348.118 252.002 346.892 253.112 345.924 254.432C344.957 255.752 344.267 257.255 343.897 258.85C343.897 258.85 355.267 257.68 355.997 262C356.727 266.32 351.337 261.26 346.637 261C341.937 260.74 337.637 261.41 337.967 264.26C338.073 266.772 337.926 269.288 337.527 271.77C340.089 269.633 343.332 268.487 346.667 268.54C351.827 268.84 351.667 272.13 346.937 271.85C342.207 271.57 338.217 276.05 338.217 276.05C338.217 276.05 342.497 283.37 347.937 286.99C353.377 290.61 355.337 289.31 355.937 286.52C356.537 283.73 355.107 276.58 358.397 276.77C361.687 276.96 352.957 289.17 357.157 289.89C361.357 290.61 364.717 289.39 365.827 286.63L366.927 283.87C366.927 283.87 365.467 276.72 366.097 273.93C366.727 271.14 367.507 274.01 368.257 277.35C369.007 280.69 369.467 288.73 370.907 288.35C372.347 287.97 376.907 282.11 378.007 279.82C379.107 277.53 371.997 270.44 371.997 269C371.997 267.56 377.577 270.27 378.437 271.73C379.055 272.834 379.616 273.969 380.117 275.13C380.117 275.13 383.537 272.97 383.457 266.37C383.377 259.77 378.577 261.89 378.577 261.89Z" fill="#FF6969"/>
<path opacity="0.3" d="M378.577 261.89C378.577 261.89 373.187 265.34 370.127 261.39C367.067 257.44 372.197 250.2 367.667 247.11C363.137 244.02 355.327 248.74 355.327 248.74C355.327 248.74 361.327 250.51 361.157 253.74C360.987 256.97 358.057 258.27 357.677 256.83C357.297 255.39 354.417 248.16 349.527 251.17C348.118 252.002 346.892 253.112 345.924 254.432C344.957 255.752 344.267 257.255 343.897 258.85C343.897 258.85 355.267 257.68 355.997 262C356.727 266.32 351.337 261.26 346.637 261C341.937 260.74 337.637 261.41 337.967 264.26C338.073 266.772 337.926 269.288 337.527 271.77C340.089 269.633 343.332 268.487 346.667 268.54C351.827 268.84 351.667 272.13 346.937 271.85C342.207 271.57 338.217 276.05 338.217 276.05C338.217 276.05 342.497 283.37 347.937 286.99C353.377 290.61 355.337 289.31 355.937 286.52C356.537 283.73 355.107 276.58 358.397 276.77C361.687 276.96 352.957 289.17 357.157 289.89C361.357 290.61 364.717 289.39 365.827 286.63L366.927 283.87C366.927 283.87 365.467 276.72 366.097 273.93C366.727 271.14 367.507 274.01 368.257 277.35C369.007 280.69 369.467 288.73 370.907 288.35C372.347 287.97 376.907 282.11 378.007 279.82C379.107 277.53 371.997 270.44 371.997 269C371.997 267.56 377.577 270.27 378.437 271.73C379.055 272.834 379.616 273.969 380.117 275.13C380.117 275.13 383.537 272.97 383.457 266.37C383.377 259.77 378.577 261.89 378.577 261.89Z" fill="#272F39"/>
<path d="M351.277 277.36C354.787 273.02 359.957 267.14 364.277 264.36" stroke="#272F39" stroke-miterlimit="10" stroke-linecap="round"/>
<path d="M347.207 282.65C347.207 282.65 348.107 281.39 349.567 279.51" stroke="#272F39" stroke-miterlimit="10" stroke-linecap="round"/>
<path d="M366.59 265.42C366.59 265.42 371.81 272.79 372.78 280.42" stroke="#272F39" stroke-miterlimit="10" stroke-linecap="round"/>
<path d="M360.68 269.78C360.68 269.78 362.15 268.92 361.59 278.31" stroke="#272F39" stroke-miterlimit="10" stroke-linecap="round"/>
<path d="M364.5 261.05C364.5 261.05 367.5 258.4 365.91 253.13" stroke="#272F39" stroke-miterlimit="10" stroke-linecap="round"/>
<path d="M360.46 265.53L358.34 261.63" stroke="#272F39" stroke-miterlimit="10" stroke-linecap="round"/>
<path d="M356 269.5C356 269.5 349.23 264.39 345 264.14" stroke="#272F39" stroke-miterlimit="10" stroke-linecap="round"/>
<path d="M397.769 248C397.769 248 397.559 255.75 391.509 256.12C385.459 256.49 381.729 246.42 375.509 248.85C369.289 251.28 368.719 262.32 368.719 262.32C368.719 262.32 374.599 257.5 377.719 259.93C380.839 262.36 380.149 266.11 378.449 265.52C376.749 264.93 367.549 262.87 367.229 269.82C367.102 271.797 367.377 273.78 368.037 275.648C368.697 277.516 369.729 279.231 371.069 280.69C371.069 280.69 377.609 268.47 382.369 270.69C387.129 272.91 378.439 274.85 374.959 279.36C371.479 283.87 369.259 288.63 372.309 290.27C374.9 291.871 377.32 293.734 379.529 295.83C379.529 295.83 378.699 289.44 382.529 284.48C386.359 279.52 389.529 281.95 386.029 286.48C382.529 291.01 384.289 298.08 384.289 298.08C384.289 298.08 394.529 298.78 401.859 295.8C409.189 292.82 409.229 289.97 406.859 287.44C404.489 284.91 396.339 281.49 398.779 278.33C401.219 275.17 407.479 292.23 411.059 288.52C414.639 284.81 415.719 280.6 413.709 277.61L411.709 274.61C411.709 274.61 403.549 271.2 401.189 268.66C398.829 266.12 402.189 267.3 406.089 268.84C409.989 270.38 418.299 275.38 418.899 273.68C419.499 271.98 416.749 263.39 415.189 260.75C413.629 258.11 401.749 260.46 400.399 259.42C399.049 258.38 405.479 254.7 407.519 254.84C409.046 254.97 410.565 255.181 412.069 255.47C412.069 255.47 412.249 250.58 405.589 246.16C398.929 241.74 397.769 248 397.769 248Z" fill="#FF6969"/>
<path opacity="0.2" d="M397.769 248C397.769 248 397.559 255.75 391.509 256.12C385.459 256.49 381.729 246.42 375.509 248.85C369.289 251.28 368.719 262.32 368.719 262.32C368.719 262.32 374.599 257.5 377.719 259.93C380.839 262.36 380.149 266.11 378.449 265.52C376.749 264.93 367.549 262.87 367.229 269.82C367.102 271.797 367.377 273.78 368.037 275.648C368.697 277.516 369.729 279.231 371.069 280.69C371.069 280.69 377.609 268.47 382.369 270.69C387.129 272.91 378.439 274.85 374.959 279.36C371.479 283.87 369.259 288.63 372.309 290.27C374.9 291.871 377.32 293.734 379.529 295.83C379.529 295.83 378.699 289.44 382.529 284.48C386.359 279.52 389.529 281.95 386.029 286.48C382.529 291.01 384.289 298.08 384.289 298.08C384.289 298.08 394.529 298.78 401.859 295.8C409.189 292.82 409.229 289.97 406.859 287.44C404.489 284.91 396.339 281.49 398.779 278.33C401.219 275.17 407.479 292.23 411.059 288.52C414.639 284.81 415.719 280.6 413.709 277.61L411.709 274.61C411.709 274.61 403.549 271.2 401.189 268.66C398.829 266.12 402.189 267.3 406.089 268.84C409.989 270.38 418.299 275.38 418.899 273.68C419.499 271.98 416.749 263.39 415.189 260.75C413.629 258.11 401.749 260.46 400.399 259.42C399.049 258.38 405.479 254.7 407.519 254.84C409.046 254.97 410.565 255.181 412.069 255.47C412.069 255.47 412.249 250.58 405.589 246.16C398.929 241.74 397.769 248 397.769 248Z" fill="#272F39"/>
<path d="M394.659 285.85C392.659 279.38 390.349 270.19 390.499 263.94" stroke="#272F39" stroke-miterlimit="10" stroke-linecap="round"/>
<path d="M397.168 293.53C397.168 293.53 396.528 291.78 395.648 289.03" stroke="#272F39" stroke-miterlimit="10" stroke-linecap="round"/>
<path d="M393.137 262.38C393.137 262.38 404.077 262.18 412.337 266.38" stroke="#272F39" stroke-miterlimit="10" stroke-linecap="round"/>
<path d="M393.48 271.27C393.48 271.27 393.62 269.27 402.64 276.18" stroke="#272F39" stroke-miterlimit="10" stroke-linecap="round"/>
<path d="M387.34 261.51C387.34 261.51 386.72 256.71 380.34 254.69" stroke="#272F39" stroke-miterlimit="10" stroke-linecap="round"/>
<path d="M389.069 268.59L383.719 268.07" stroke="#272F39" stroke-miterlimit="10" stroke-linecap="round"/>
<path d="M389.998 275.78C389.998 275.78 380.278 279.07 377.148 283.13" stroke="#272F39" stroke-miterlimit="10" stroke-linecap="round"/>
<path d="M332.887 299.51C332.887 299.51 363.657 319.85 363.137 398.58" stroke="#272F39" stroke-width="2" stroke-miterlimit="10" stroke-linecap="round"/>
<path d="M370.827 294.14C370.827 294.14 369.827 303.05 362.827 302.92C355.827 302.79 352.457 290.8 345.097 293C337.737 295.2 335.997 307.9 335.997 307.9C335.997 307.9 343.227 302.9 346.647 305.99C350.067 309.08 348.857 313.36 346.947 312.52C345.037 311.68 334.617 308.43 333.597 316.41C333.261 318.683 333.389 321.001 333.973 323.223C334.557 325.446 335.586 327.526 336.997 329.34C336.997 329.34 345.697 315.86 350.997 318.88C356.297 321.9 346.067 323.31 341.627 328.19C337.187 333.07 334.177 338.35 337.547 340.52C340.917 342.69 345.347 347.62 345.347 347.62C345.347 347.62 344.997 340.17 349.877 334.8C354.757 329.43 358.177 332.55 353.737 337.42C349.297 342.29 350.627 350.64 350.627 350.64C350.627 350.64 362.377 352.42 371.117 349.64C379.857 346.86 380.167 343.64 377.687 340.46C375.207 337.28 366.117 332.61 369.217 329.19C372.317 325.77 377.947 346.05 382.437 342.11C386.927 338.17 388.557 333.42 386.517 329.78L384.517 326.14C384.517 326.14 375.427 321.43 372.947 318.28C370.467 315.13 374.277 316.82 378.577 318.95C382.877 321.08 392.057 327.65 392.907 325.74C393.757 323.83 391.397 313.68 389.847 310.48C388.297 307.28 374.367 308.88 372.907 307.55C371.447 306.22 379.207 302.55 381.557 302.94C383.306 303.238 385.038 303.625 386.747 304.1C386.747 304.1 387.417 298.46 380.147 292.74C372.877 287.02 370.827 294.14 370.827 294.14Z" fill="#FF6969"/>
<path opacity="0.3" d="M370.827 294.14C370.827 294.14 369.827 303.05 362.827 302.92C355.827 302.79 352.457 290.8 345.097 293C337.737 295.2 335.997 307.9 335.997 307.9C335.997 307.9 343.227 302.9 346.647 305.99C350.067 309.08 348.857 313.36 346.947 312.52C345.037 311.68 334.617 308.43 333.597 316.41C333.261 318.683 333.389 321.001 333.973 323.223C334.557 325.446 335.586 327.526 336.997 329.34C336.997 329.34 345.697 315.86 350.997 318.88C356.297 321.9 346.067 323.31 341.627 328.19C337.187 333.07 334.177 338.35 337.547 340.52C340.917 342.69 345.347 347.62 345.347 347.62C345.347 347.62 344.997 340.17 349.877 334.8C354.757 329.43 358.177 332.55 353.737 337.42C349.297 342.29 350.627 350.64 350.627 350.64C350.627 350.64 362.377 352.42 371.117 349.64C379.857 346.86 380.167 343.64 377.687 340.46C375.207 337.28 366.117 332.61 369.217 329.19C372.317 325.77 377.947 346.05 382.437 342.11C386.927 338.17 388.557 333.42 386.517 329.78L384.517 326.14C384.517 326.14 375.427 321.43 372.947 318.28C370.467 315.13 374.277 316.82 378.577 318.95C382.877 321.08 392.057 327.65 392.907 325.74C393.757 323.83 391.397 313.68 389.847 310.48C388.297 307.28 374.367 308.88 372.907 307.55C371.447 306.22 379.207 302.55 381.557 302.94C383.306 303.238 385.038 303.625 386.747 304.1C386.747 304.1 387.417 298.46 380.147 292.74C372.877 287.02 370.827 294.14 370.827 294.14Z" fill="#272F39"/>
<path d="M363.65 337.56C362.01 329.9 360.16 319.08 360.93 311.88" stroke="#272F39" stroke-miterlimit="10" stroke-linecap="round"/>
<path d="M365.83 346.65C365.83 346.65 365.26 344.57 364.5 341.32" stroke="#272F39" stroke-miterlimit="10" stroke-linecap="round"/>
<path d="M364.117 310.33C364.117 310.33 376.757 311.13 385.897 316.77" stroke="#272F39" stroke-miterlimit="10" stroke-linecap="round"/>
<path d="M363.668 320.62C363.668 320.62 364.028 318.26 373.778 327.14" stroke="#272F39" stroke-miterlimit="10" stroke-linecap="round"/>
<path d="M357.509 308.77C357.509 308.77 357.249 303.18 350.109 300.25" stroke="#272F39" stroke-miterlimit="10" stroke-linecap="round"/>
<path d="M358.839 317.11L352.719 316" stroke="#272F39" stroke-miterlimit="10" stroke-linecap="round"/>
<path d="M359.227 325.49C359.227 325.49 347.697 328.37 343.707 332.76" stroke="#272F39" stroke-miterlimit="10" stroke-linecap="round"/>
<path d="M344.887 361.56C344.887 361.56 364.697 376.68 366.787 399.1L362.617 324" stroke="#272F39" stroke-width="2" stroke-miterlimit="10" stroke-linecap="round"/>
<path d="M392.859 350.61C366.789 345.92 366.789 399.1 366.789 399.1" stroke="#272F39" stroke-width="2" stroke-miterlimit="10" stroke-linecap="round"/>
<path d="M369.92 398.58C369.92 398.58 354.79 288.58 398.59 288.58" stroke="#272F39" stroke-width="2" stroke-miterlimit="10" stroke-linecap="round"/>
<path d="M382.917 347.45C379.357 343.45 371.797 343.45 367.337 353.68C362.877 363.91 366.897 362.14 366.897 362.14C366.897 362.14 375.357 359.47 380.697 357.69C386.037 355.91 393.157 351.45 393.607 354.12C394.057 356.79 390.047 359.47 385.147 360.36C380.247 361.25 367.337 364.81 368.677 367.48C370.017 370.15 373.127 378.16 373.127 378.16C376.927 374.932 380.936 371.959 385.127 369.26C390.917 365.7 394.477 367.03 391.357 371.04C388.237 375.05 379.357 379.5 381.117 384.84C382.877 390.18 393.587 396.84 393.587 396.84C393.587 396.84 394.917 385.71 398.037 382.15C401.157 378.59 401.157 382.59 400.267 388.83C399.818 391.478 399.517 394.149 399.367 396.83L411.837 401.28C411.837 401.28 416.287 394.6 418.517 392.38L420.737 390.15C420.737 390.15 410.947 381.69 410.497 376.35C410.047 371.01 417.177 376.35 419.407 377.24C421.637 378.13 425.187 384.36 425.187 384.36C425.187 384.36 427.417 374.13 427.857 370.57L428.307 367C428.307 367 418.957 363.44 415.397 363.44C411.837 363.44 410.057 366.11 410.057 362.55C410.057 358.99 413.617 356.77 417.627 357.21C421.252 357.819 424.823 358.712 428.307 359.88C428.307 359.88 430.977 357.66 430.087 350.98C429.197 344.3 426.967 344.3 421.627 346.08C416.287 347.86 412.727 351.87 408.717 351.87C404.707 351.87 406.937 346.97 409.607 345.64C412.277 344.31 418.957 341.64 420.297 341.18C421.637 340.72 413.167 334.51 408.717 333.62C404.267 332.73 398.507 335.86 398.927 340.29C399.837 349.67 386.487 351.45 382.917 347.45Z" fill="#FF6969"/>
<path d="M411.578 393.28C411.708 394.62 411.808 395.96 411.858 397.28" stroke="#272F39" stroke-miterlimit="10" stroke-linecap="round"/>
<path d="M402.637 361.32C406.536 370.142 409.344 379.407 410.997 388.91" stroke="#272F39" stroke-miterlimit="10" stroke-linecap="round"/>
<path d="M400.997 357.75C398.797 353.01 397.137 350.12 397.137 350.12C399.567 348.973 401.587 347.109 402.927 344.78C403.964 342.668 405.489 340.834 407.377 339.43" stroke="#272F39" stroke-miterlimit="10" stroke-linecap="round"/>
<path d="M381.59 365.25C381.59 365.25 397.59 358.58 397.59 359.91" stroke="#272F39" stroke-miterlimit="10" stroke-linecap="round"/>
<path d="M406.52 356.8C406.52 356.8 413.64 353.23 419.87 353.23" stroke="#272F39" stroke-miterlimit="10" stroke-linecap="round"/>
<path d="M403.85 367.48C400.763 370.019 397.929 372.853 395.39 375.94C392.789 379.005 390.687 382.461 389.16 386.18" stroke="#272F39" stroke-miterlimit="10" stroke-linecap="round"/>
<path d="M408.738 369.26C408.738 369.26 418.088 366.59 422.988 371.04" stroke="#272F39" stroke-miterlimit="10" stroke-linecap="round"/>
<path d="M425.678 309.11C420.828 306.24 415.468 306.18 412.838 303.16C410.208 300.14 415.368 298.6 418.128 299.74C420.888 300.88 427.288 304.17 428.498 304.89C429.708 305.61 428.868 295.14 426.628 291.19C424.388 287.24 418.228 284.95 415.158 288.19C408.688 294.99 398.588 286.08 399.278 280.76C399.968 275.44 395.008 269.76 384.358 273.08C373.708 276.4 377.678 278.29 377.678 278.29C377.678 278.29 385.238 282.92 390.088 285.79C394.938 288.66 402.968 291.12 401.238 293.21C399.508 295.3 394.868 294.02 390.988 290.9C387.108 287.78 375.988 280.38 374.808 283.14C373.628 285.9 369.658 293.5 369.658 293.5C374.594 294.255 379.475 295.338 384.268 296.74C390.748 298.74 392.078 302.34 387.008 302.61C381.938 302.88 372.738 299.08 369.868 303.93C366.998 308.78 368.968 321.22 368.968 321.22C368.968 321.22 378.248 314.93 382.968 314.95C387.688 314.97 384.678 317.6 379.388 321.01C377.092 322.413 374.875 323.942 372.748 325.59L377.558 337.92C377.558 337.92 385.558 336.92 388.658 337.13L391.798 337.35C391.798 337.35 391.798 324.41 395.508 320.57C399.218 316.73 399.888 325.57 400.678 327.88C401.468 330.19 399.088 336.88 399.088 336.88C399.088 336.88 408.278 331.88 411.258 329.88L414.258 327.88C414.258 327.88 410.828 318.48 408.488 315.79C406.148 313.1 402.968 313.51 405.658 311.18C408.348 308.85 412.368 310.07 414.658 313.39C416.583 316.525 418.255 319.809 419.658 323.21C419.658 323.21 423.088 323.77 427.548 318.72C432.008 313.67 430.518 312 425.678 309.11ZM383.548 323.36C379.988 321.58 388.438 318.02 388.438 318.02C391.558 317.57 387.108 325.14 383.548 323.36ZM389.548 306.74C388.028 305.98 392.548 304.46 392.548 304.46C399.158 305.73 391.058 307.5 389.548 306.74Z" fill="#FF6969"/>
<path d="M383.448 332.43C382.528 333.43 381.578 334.36 380.598 335.27" stroke="#272F39" stroke-miterlimit="10" stroke-linecap="round"/>
<path d="M401.717 304.72C397.625 313.453 392.476 321.651 386.387 329.13" stroke="#272F39" stroke-miterlimit="10" stroke-linecap="round"/>
<path d="M403.367 301.17C405.507 296.4 406.597 293.25 406.597 293.25C409.057 294.333 411.79 294.636 414.427 294.12C416.7 293.523 419.082 293.475 421.377 293.98" stroke="#272F39" stroke-miterlimit="10" stroke-linecap="round"/>
<path d="M385 291.4C385 291.4 400.55 299.13 399.54 300" stroke="#272F39" stroke-miterlimit="10" stroke-linecap="round"/>
<path d="M407.688 304.68C407.688 304.68 415.048 307.73 419.128 312.43" stroke="#272F39" stroke-miterlimit="10" stroke-linecap="round"/>
<path d="M397.867 309.67C393.927 309.005 389.932 308.724 385.937 308.83C381.917 308.871 377.927 309.546 374.117 310.83" stroke="#272F39" stroke-miterlimit="10" stroke-linecap="round"/>
<path d="M399.73 314.54C399.73 314.54 407.88 319.84 407.73 326.46" stroke="#272F39" stroke-miterlimit="10" stroke-linecap="round"/>
<path d="M356.497 370.79C352.597 368.49 348.287 368.43 346.177 366C344.067 363.57 348.177 362.33 350.427 363.25C352.677 364.17 357.797 366.82 358.777 367.4C359.757 367.98 359.077 359.55 357.267 356.4C355.457 353.25 350.507 351.4 348.037 353.97C342.827 359.45 334.697 352.27 335.257 347.97C335.817 343.67 331.817 339.09 323.257 341.79C314.697 344.49 317.887 345.98 317.887 345.98C317.887 345.98 323.967 349.71 327.887 351.98C331.807 354.25 338.257 356.27 336.887 357.98C335.517 359.69 331.757 358.63 328.637 356.12C325.517 353.61 316.537 347.65 315.637 349.87C314.737 352.09 311.497 358.21 311.497 358.21C315.467 358.82 319.392 359.692 323.247 360.82C328.467 362.46 329.527 365.33 325.457 365.55C321.387 365.77 313.967 362.71 311.667 366.61C309.367 370.51 310.937 380.52 310.937 380.52C310.937 380.52 318.407 375.46 322.207 375.52C326.007 375.58 323.587 377.65 319.327 380.39C317.48 381.519 315.697 382.751 313.987 384.08L317.857 394C320.821 393.599 323.807 393.385 326.797 393.36L329.317 393.54C329.317 393.54 329.317 383.13 332.317 380.04C335.317 376.95 335.837 384.1 336.467 385.92C337.097 387.74 335.197 393.19 335.197 393.19C335.197 393.19 342.587 389.19 344.987 387.54L347.387 385.93C347.387 385.93 344.617 378.37 342.747 376.2C340.877 374.03 338.297 374.37 340.467 372.49C342.637 370.61 345.857 371.6 347.707 374.27C349.246 376.794 350.584 379.435 351.707 382.17C351.707 382.17 354.467 382.62 358.057 378.56C361.647 374.5 360.397 373.1 356.497 370.79ZM322.597 382.26C319.737 380.83 326.537 377.96 326.537 377.96C329.047 377.6 325.467 383.69 322.597 382.26ZM327.427 368.88C326.207 368.27 329.867 367.05 329.867 367.05C335.157 368.07 328.647 369.5 327.427 368.88Z" fill="#FF6969"/>
<path d="M322.52 389.56C321.78 390.34 321.01 391.11 320.23 391.85" stroke="#272F39" stroke-miterlimit="10" stroke-linecap="round"/>
<path d="M337.229 367.26C333.933 374.291 329.785 380.891 324.879 386.91" stroke="#272F39" stroke-miterlimit="10" stroke-linecap="round"/>
<path d="M338.547 364.4C340.267 360.56 341.147 358.03 341.147 358.03C343.127 358.897 345.325 359.141 347.447 358.73C349.278 358.249 351.197 358.208 353.047 358.61" stroke="#272F39" stroke-miterlimit="10" stroke-linecap="round"/>
<path d="M323.738 356.54C323.738 356.54 336.248 362.76 335.438 363.46" stroke="#272F39" stroke-miterlimit="10" stroke-linecap="round"/>
<path d="M342 367.23C342 367.23 347.92 369.68 351.21 373.47" stroke="#272F39" stroke-miterlimit="10" stroke-linecap="round"/>
<path d="M334.118 371.24C330.947 370.704 327.732 370.48 324.518 370.57C321.283 370.605 318.074 371.149 315.008 372.18" stroke="#272F39" stroke-miterlimit="10" stroke-linecap="round"/>
<path d="M335.629 375.16C335.629 375.16 342.179 379.43 342.059 384.76" stroke="#272F39" stroke-miterlimit="10" stroke-linecap="round"/>
<path d="M340.599 297.28C340.599 297.28 335.699 300.84 332.599 297.28C329.499 293.72 333.929 286.6 329.479 283.93C325.029 281.26 317.909 286.15 317.909 286.15C317.909 286.15 323.689 287.49 323.689 290.61C323.689 293.73 321.019 295.06 320.579 293.72C320.139 292.38 317.019 285.72 312.579 288.82C311.292 289.684 310.194 290.8 309.351 292.102C308.509 293.403 307.94 294.862 307.679 296.39C307.679 296.39 318.359 294.61 319.249 298.62C320.139 302.63 314.799 298.17 310.349 298.17C305.899 298.17 301.889 299.06 302.349 301.73C302.588 304.101 302.588 306.489 302.349 308.86C304.65 306.703 307.647 305.441 310.799 305.3C315.699 305.3 315.699 308.41 311.249 308.41C306.799 308.41 303.249 312.86 303.249 312.86C303.249 312.86 307.699 319.54 313.039 322.66C318.379 325.78 320.159 324.44 320.609 321.77C321.059 319.1 319.269 312.42 322.389 312.42C325.509 312.42 317.939 324.42 321.939 324.88C325.939 325.34 329.069 323.99 329.939 321.32L330.829 318.65C330.829 318.65 328.999 312 329.469 309.3C329.939 306.6 330.809 309.3 331.699 312.42C332.589 315.54 333.479 323.1 334.809 322.66C336.139 322.22 340.159 316.42 341.049 314.2C341.939 311.98 334.809 305.74 334.809 304.41C334.809 303.08 340.159 305.3 341.049 306.63C341.695 307.639 342.289 308.68 342.829 309.75C342.829 309.75 345.939 307.52 345.499 301.29C345.059 295.06 340.599 297.28 340.599 297.28Z" fill="#FF6969"/>
<path d="M315.66 313.43C318.74 309.13 323.3 303.29 327.25 300.43" stroke="#272F39" stroke-miterlimit="10" stroke-linecap="round"/>
<path d="M312.109 318.65C312.109 318.65 312.889 317.42 314.169 315.56" stroke="#272F39" stroke-miterlimit="10" stroke-linecap="round"/>
<path d="M329.469 301.29C329.469 301.29 334.809 307.97 336.149 315.09" stroke="#272F39" stroke-miterlimit="10" stroke-linecap="round"/>
<path d="M324.129 305.74C324.129 305.74 325.469 304.85 325.469 313.74" stroke="#272F39" stroke-miterlimit="10" stroke-linecap="round"/>
<path d="M327.25 297.28C327.25 297.28 329.92 294.61 328.14 289.72" stroke="#272F39" stroke-miterlimit="10" stroke-linecap="round"/>
<path d="M323.677 301.73L321.457 298.17" stroke="#272F39" stroke-miterlimit="10" stroke-linecap="round"/>
<path d="M319.68 305.74C319.68 305.74 313 301.29 309 301.29" stroke="#272F39" stroke-miterlimit="10" stroke-linecap="round"/>
<path d="M385.547 397.02H351.137V446.56H385.547V397.02Z" fill="#272F39" stroke="#272F39" stroke-width="2" stroke-miterlimit="10" stroke-linecap="round"/>
<path d="M331.16 130.15C338.808 122.486 343.102 112.102 343.102 101.275C343.102 90.4484 338.808 80.0639 331.16 72.4C324.071 65.3093 314.621 61.0738 304.61 60.5C304 60.5 303.38 60.44 302.77 60.44H302.53C302.18 60.44 301.71 60.44 301.17 60.49H300.47C300.294 60.4802 300.117 60.4802 299.94 60.49H299.89C299.35 60.49 298.82 60.57 298.29 60.62C299.492 57.7053 300.107 54.5825 300.1 51.43C300.109 47.8321 299.317 44.2774 297.783 41.023C296.249 37.7687 294.01 34.8962 291.229 32.6134C288.448 30.3306 285.194 28.6947 281.703 27.8241C278.212 26.9535 274.572 26.8699 271.044 27.5795C267.517 28.289 264.192 29.7739 261.309 31.9266C258.426 34.0794 256.058 36.8462 254.376 40.0267C252.694 43.2072 251.74 46.7219 251.584 50.3164C251.427 53.9109 252.071 57.4953 253.47 60.81C251.523 60.5288 249.558 60.3884 247.59 60.39C246.92 60.39 246.03 60.39 245.07 60.48C238.273 60.8993 231.688 63.012 225.915 66.6256C220.142 70.2393 215.365 75.2393 212.018 81.1705C208.671 87.1017 206.86 93.7759 206.75 100.586C206.641 107.395 208.236 114.124 211.39 120.16L211.53 120.41C213.436 123.977 215.859 127.242 218.72 130.1L264.25 175.64V179.7C262.531 180.119 261.003 181.104 259.91 182.495C258.817 183.887 258.222 185.605 258.222 187.375C258.222 189.145 258.817 190.863 259.91 192.255C261.003 193.646 262.531 194.631 264.25 195.05V202.13C262.531 202.549 261.003 203.534 259.91 204.925C258.817 206.317 258.222 208.035 258.222 209.805C258.222 211.575 258.817 213.293 259.91 214.685C261.003 216.076 262.531 217.061 264.25 217.48V408.16H211.57C210.089 408.163 208.668 408.752 207.621 409.8C206.573 410.848 205.983 412.268 205.98 413.75V440.82C205.986 442.3 206.577 443.718 207.624 444.763C208.672 445.809 210.09 446.397 211.57 446.4H220.75C220.888 446.4 221.021 446.345 221.118 446.248C221.216 446.15 221.27 446.018 221.27 445.88V436.25C221.241 435.586 221.345 434.923 221.579 434.3C221.812 433.678 222.17 433.109 222.629 432.629C223.088 432.148 223.64 431.766 224.252 431.504C224.863 431.243 225.521 431.108 226.185 431.108C226.85 431.108 227.508 431.243 228.119 431.504C228.731 431.766 229.283 432.148 229.742 432.629C230.201 433.109 230.559 433.678 230.792 434.3C231.026 434.923 231.13 435.586 231.1 436.25V445.88C231.1 445.948 231.114 446.016 231.14 446.079C231.166 446.142 231.204 446.199 231.253 446.248C231.301 446.296 231.358 446.334 231.421 446.36C231.485 446.387 231.552 446.4 231.62 446.4H235.83C235.968 446.4 236.101 446.345 236.198 446.248C236.296 446.15 236.35 446.018 236.35 445.88V436.25C236.321 435.586 236.425 434.923 236.659 434.3C236.892 433.678 237.25 433.109 237.709 432.629C238.168 432.148 238.72 431.766 239.332 431.504C239.943 431.243 240.601 431.108 241.265 431.108C241.93 431.108 242.588 431.243 243.199 431.504C243.811 431.766 244.363 432.148 244.822 432.629C245.281 433.109 245.639 433.678 245.872 434.3C246.106 434.923 246.21 435.586 246.18 436.25V445.88C246.18 446.018 246.235 446.15 246.333 446.248C246.43 446.345 246.563 446.4 246.7 446.4H250.9C250.969 446.4 251.036 446.387 251.099 446.36C251.163 446.334 251.22 446.296 251.268 446.248C251.316 446.199 251.355 446.142 251.381 446.079C251.407 446.016 251.42 445.948 251.42 445.88V436.25C251.42 434.945 251.939 433.694 252.862 432.771C253.784 431.848 255.036 431.33 256.34 431.33C257.645 431.33 258.897 431.848 259.819 432.771C260.742 433.694 261.26 434.945 261.26 436.25V445.88C261.26 446.018 261.315 446.15 261.413 446.248C261.51 446.345 261.643 446.4 261.78 446.4H264.41C264.459 446.448 264.517 446.486 264.58 446.512C264.644 446.538 264.712 446.551 264.78 446.55H284.89C285.028 446.55 285.161 446.495 285.258 446.398C285.356 446.3 285.41 446.168 285.41 446.03V217.65C287.269 217.359 288.962 216.414 290.185 214.984C291.408 213.555 292.08 211.736 292.08 209.855C292.08 207.974 291.408 206.155 290.185 204.726C288.962 203.296 287.269 202.351 285.41 202.06V195.23C287.265 194.932 288.952 193.983 290.17 192.554C291.388 191.125 292.057 189.308 292.057 187.43C292.057 185.552 291.388 183.735 290.17 182.306C288.952 180.877 287.265 179.928 285.41 179.63V175.9L331.16 130.15ZM272.79 168.66L241 136.84C242.484 137.021 243.976 137.111 245.47 137.11C250.405 137.114 255.292 136.144 259.851 134.257C264.41 132.369 268.553 129.601 272.04 126.11C273.311 126.309 274.595 126.413 275.88 126.42C276.6 126.42 277.33 126.42 278.07 126.31C282.247 130.236 287.264 133.157 292.74 134.85C298.217 136.543 304.007 136.964 309.67 136.08L277.12 168.63L272.79 168.66ZM226.5 80.18C231.648 75.0195 238.514 71.9334 245.79 71.51H245.98C246.41 71.51 246.91 71.51 247.59 71.51C248.27 71.51 249.21 71.51 250 71.61C255.795 72.5613 261.154 75.2824 265.34 79.4C263.591 80.2204 261.935 81.2262 260.4 82.4C257.439 84.611 255.029 87.476 253.357 90.7717C251.684 94.0673 250.796 97.7046 250.76 101.4C250.772 105.564 251.813 109.661 253.792 113.325C255.77 116.989 258.625 120.107 262.1 122.4C259.058 124.622 255.602 126.213 251.936 127.08C248.27 127.947 244.468 128.072 240.752 127.449C237.037 126.826 233.484 125.466 230.301 123.45C227.119 121.434 224.371 118.803 222.22 115.71L221.81 115.99L222.16 115.62C220.619 113.383 219.41 110.934 218.57 108.35C217.346 103.37 217.432 98.1567 218.822 93.2197C220.212 88.2827 222.857 83.7901 226.5 80.18ZM300.5 71.53H300.75H301.66H302.29H302.81C303.19 71.53 303.56 71.53 304 71.53C311.447 71.9514 318.466 75.1473 323.673 80.4876C328.88 85.8278 331.897 92.925 332.13 100.38C331.884 105.314 330.351 110.097 327.683 114.254C325.015 118.411 321.306 121.798 316.923 124.077C312.541 126.356 307.638 127.449 302.703 127.246C297.767 127.043 292.971 125.551 288.79 122.92C291.198 121.477 293.345 119.638 295.14 117.48C299.239 112.838 301.405 106.802 301.193 100.613C300.981 94.424 298.407 88.5509 294 84.2C291.406 81.449 288.194 79.3547 284.63 78.09C286.51 76.3668 288.612 74.9037 290.88 73.74C293.931 72.4815 297.167 71.7349 300.46 71.53H300.5ZM276.65 87.72C277.787 87.7192 278.919 87.8603 280.02 88.14C285.59 89.58 289.95 95.38 289.95 101.35C289.954 104.803 288.689 108.137 286.396 110.718C284.102 113.299 280.94 114.948 277.51 115.35C275.282 115.619 273.022 115.348 270.92 114.56C269.913 114.187 268.954 113.697 268.06 113.1C266.335 111.585 264.984 109.691 264.111 107.567C263.238 105.443 262.869 103.147 263.03 100.856C263.192 98.5656 263.881 96.3434 265.043 94.3631C266.205 92.3828 267.81 90.698 269.73 89.44C271.87 88.3307 274.241 87.7415 276.65 87.72ZM275.84 36.55C278.793 36.55 281.68 37.4256 284.135 39.0662C286.59 40.7067 288.504 43.0385 289.634 45.7666C290.764 48.4947 291.06 51.4966 290.484 54.3927C289.908 57.2889 288.486 59.9491 286.398 62.0371C284.31 64.1251 281.649 65.5471 278.753 66.1231C275.857 66.6992 272.855 66.4036 270.127 65.2735C267.399 64.1435 265.067 62.2299 263.427 59.7747C261.786 57.3195 260.91 54.4329 260.91 51.48C260.913 47.5212 262.487 43.7252 265.286 40.9258C268.086 38.1265 271.882 36.5527 275.84 36.55Z" fill="#272F39"/>
<path d="M114.881 434.65C113.002 436.112 111.206 437.678 109.501 439.34C107.051 441.8 100.171 444.5 96.0012 447.45C91.8312 450.4 94.2812 453.34 98.0012 454.57C101.721 455.8 112.251 454.81 116.181 454.08C120.111 453.35 122.071 448.68 125.261 447.94C128.451 447.2 134.351 449.94 134.591 445.24C134.831 440.54 135.081 435.91 135.081 435.91L114.881 434.65Z" fill="white" stroke="#272F39" stroke-linecap="round" stroke-linejoin="round"/>
<path d="M134.549 445.24C134.549 444.29 134.649 443.34 134.699 442.44C132.029 444.36 128.699 444.27 124.239 445.24C118.589 446.46 116.629 451.87 105.329 452.36C98.0188 452.68 95.0387 451.36 93.8387 450.36C93.6387 452.17 95.5288 453.74 97.9588 454.55C101.649 455.78 112.209 454.79 116.139 454.06C120.069 453.33 122.029 448.66 125.219 447.92C128.409 447.18 134.309 449.9 134.549 445.24Z" fill="white" stroke="#272F39" stroke-linecap="round" stroke-linejoin="round"/>
<path d="M117.119 433.69C117.119 433.69 111.469 440.57 109.499 442.78C107.529 444.99 113.189 444.25 115.639 442.04C117.931 439.733 120.066 437.274 122.029 434.68L117.119 433.69Z" fill="white" stroke="#272F39" stroke-linecap="round" stroke-linejoin="round"/>
<path d="M194.532 434.65C196.409 436.111 198.202 437.677 199.902 439.34C202.362 441.8 209.232 444.5 213.412 447.45C217.592 450.4 215.132 453.34 211.412 454.57C207.692 455.8 197.172 454.81 193.242 454.08C189.312 453.35 187.352 448.68 184.162 447.94C180.972 447.2 175.072 449.94 174.822 445.24C174.572 440.54 174.332 435.91 174.332 435.91L194.532 434.65Z" fill="white" stroke="#272F39" stroke-linecap="round" stroke-linejoin="round"/>
<path d="M174.851 445.24C174.851 444.29 174.751 443.34 174.711 442.44C177.381 444.36 180.711 444.27 185.171 445.24C190.821 446.46 192.781 451.87 204.081 452.36C211.381 452.68 214.361 451.36 215.571 450.36C215.761 452.17 213.881 453.74 211.441 454.55C207.761 455.78 197.201 454.79 193.271 454.06C189.341 453.33 187.381 448.66 184.191 447.92C181.001 447.18 175.101 449.9 174.851 445.24Z" fill="white" stroke="#272F39" stroke-linecap="round" stroke-linejoin="round"/>
<path d="M192.289 433.69C192.289 433.69 197.939 440.57 199.899 442.78C201.859 444.99 196.219 444.25 193.759 442.04C191.472 439.731 189.34 437.272 187.379 434.68L192.289 433.69Z" fill="white" stroke="#272F39" stroke-linecap="round" stroke-linejoin="round"/>
<path d="M117.94 259.19C117.94 259.19 114.88 286.79 114.88 291.25C114.88 295.71 114.88 351.98 115.56 361.93C116.24 371.88 112.82 375.98 114.88 388.67C116.94 401.36 117.62 423.67 117.62 423.67C117.62 423.67 114.88 425.38 114.88 427.1V434.65L135.54 436.89C135.54 436.89 136.84 419.21 137.18 413.72C137.52 408.23 142.67 373.6 144.04 363.65C145.41 353.7 150.83 297 150.83 297C150.83 297 159.83 359.83 160.51 361.89C162.421 366.812 164.024 371.849 165.31 376.97C168.4 388.29 171.14 427.4 171.14 427.4L174.14 438.32L195.26 434.39C195.26 434.39 192.12 416.77 192.12 414.02C192.12 411.27 191.44 412.31 190.75 405.44C189.504 392.68 189.17 379.848 189.75 367.04C190.44 347.14 181.17 294.3 181.17 294.3L178.35 259C178.35 259 144.34 266.92 117.94 259.19Z" fill="#272F39" stroke="#272F39" stroke-linecap="round" stroke-linejoin="round"/>
<path d="M159.189 288.39L153.629 298.71C153.629 298.71 165.539 291.57 173.079 290.38" stroke="#A0A3BD" stroke-linecap="round" stroke-linejoin="round"/>
<path d="M140.8 295.13C140.8 295.13 135.64 286.79 126.5 284.4" stroke="#A0A3BD" stroke-linecap="round" stroke-linejoin="round"/>
<path d="M116.92 262.09C116.92 262.09 113.34 271.09 115.13 273.75C116.92 276.41 133.52 283.17 150.13 283.17C166.74 283.17 182.87 277.34 182.87 273.3C182.87 269.26 179.73 259.4 179.73 259.4C179.73 259.4 152.8 272 116.92 262.09Z" fill="#FF6969" stroke="#272F39" stroke-linecap="round" stroke-linejoin="round"/>
<path d="M122.399 176.71C122.399 176.71 110.399 176.71 107.629 178.94C104.859 181.17 104.569 190.36 104.289 192.03C104.009 193.7 94.2891 240.63 94.2891 240.63L97.7291 246.26L108.379 246.73L115.999 218.51L116.479 264.26C116.479 264.26 117.399 268.75 120.479 270.43C123.559 272.11 144.999 273.77 154.999 273.77C164.999 273.77 179.489 268.77 180.599 265.68C181.709 262.59 178.409 228.26 178.409 228.26L183.169 238.84L194.569 219.3C194.569 219.3 186.769 193.43 185.649 187.85C184.529 182.27 181.469 180.61 175.339 178.1C169.209 175.59 151.099 176.43 143.859 176.43C136.619 176.43 122.399 176.71 122.399 176.71Z" fill="#FF6969" stroke="#272F39" stroke-linecap="round" stroke-linejoin="round"/>
<path d="M125.441 266.57C127.661 266.314 129.738 265.346 131.361 263.81C132.984 262.273 134.065 260.253 134.441 258.05C136.241 249.98 137.131 245.5 137.131 245.5L140.271 245.05C140.21 249.546 139.913 254.035 139.381 258.5C138.481 266.12 135.791 268.37 134.441 268.37" stroke="#272F39" stroke-linecap="round" stroke-linejoin="round"/>
<path d="M175.222 262.54C178.812 253.54 170.742 243.25 170.742 243.25L167.602 242.8C167.602 242.8 176.602 254.46 172.082 263.43" stroke="#272F39" stroke-linecap="round" stroke-linejoin="round"/>
<path d="M115.989 218.51L114.039 204.29" stroke="#272F39" stroke-linecap="round" stroke-linejoin="round"/>
<path d="M178.411 228.26L177.301 202.34" stroke="#272F39" stroke-linecap="round" stroke-linejoin="round"/>
<path d="M180.71 229.82C180.71 229.82 177.23 223.37 188.65 217.91" stroke="#272F39" stroke-linecap="round" stroke-linejoin="round"/>
<path d="M182.691 216.42C182.691 216.42 188.691 213.94 192.621 213.94" stroke="#272F39" stroke-linecap="round" stroke-linejoin="round"/>
<path d="M102.301 217.91C102.301 217.91 110.221 218.91 112.211 226.33" stroke="#272F39" stroke-linecap="round" stroke-linejoin="round"/>
<path d="M113.219 221.38C113.219 221.38 109.749 215.43 104.289 214.44" stroke="#272F39" stroke-linecap="round" stroke-linejoin="round"/>
<path d="M139.761 164.19C139.761 164.19 133.441 164.19 131.571 165.59C129.701 166.99 128.761 170.74 127.821 171.45C126.881 172.16 122.671 171.91 121.731 174.45C120.791 176.99 120.801 176.32 128.051 183.11C135.301 189.9 153.341 197.62 155.211 197.62C157.081 197.62 169.211 183.62 172.771 181.94C176.331 180.26 176.771 180.3 176.981 179.36C177.191 178.42 176.751 173.75 173.701 171.87C171.534 170.66 169.16 169.866 166.701 169.53C166.701 169.53 166.231 166.72 162.491 164.62C158.751 162.52 153.591 162.04 149.851 162.04C146.111 162.04 139.761 164.19 139.761 164.19Z" fill="#FF6969" stroke="#272F39" stroke-linecap="round" stroke-linejoin="round"/>
<path d="M166.682 169.57C166.368 173.039 165.577 176.447 164.332 179.7" stroke="#272F39" stroke-linecap="round" stroke-linejoin="round"/>
<path d="M129.102 174.74C129.102 174.74 130.102 177.74 135.552 180.69" stroke="#272F39" stroke-linecap="round" stroke-linejoin="round"/>
<path d="M150.82 194.26L151.38 224.91" stroke="white" stroke-linecap="round" stroke-linejoin="round"/>
<path d="M157.512 194.54L160.302 222.96" stroke="white" stroke-linecap="round" stroke-linejoin="round"/>
<path d="M193.691 220.66L220.491 199.36C220.491 199.36 219.291 191.71 219.491 190.51C219.691 189.31 221.881 182.38 227.151 179.75C232.421 177.12 234.081 176.64 234.081 178.55C234.081 180.46 232.171 180.94 231.691 181.66C231.211 182.38 228.581 185.01 228.581 185.01C228.581 185.01 233.581 182.86 235.281 182.86C236.981 182.86 239.831 182.14 239.831 183.81C239.831 185.48 237.911 185.49 236.721 185.49C235.531 185.49 232.171 188.84 232.171 188.84C234.931 188.14 237.724 187.58 240.541 187.16C241.981 187.16 243.181 188.84 241.981 189.56C240.916 190.09 239.791 190.49 238.631 190.75C237.563 191.25 236.524 191.811 235.521 192.43C235.521 192.43 242.701 191.71 242.221 193.62C241.741 195.53 238.391 195.06 237.671 195.06C236.951 195.06 234.081 196.49 233.611 197.45C233.141 198.41 232.171 202.45 230.261 203.45C228.351 204.45 224.751 205.84 224.751 205.84C224.751 205.84 212.551 220.68 207.531 226.42C202.511 232.16 193.451 238.84 188.431 240C183.411 241.16 182.431 239.76 182.211 237.6C181.991 235.44 182.201 227.83 193.691 220.66Z" fill="white" stroke="#272F39" stroke-linecap="round" stroke-linejoin="round"/>
<path d="M220.73 187.4C220.73 187.4 226.47 184.77 227.67 184.77C228.87 184.77 230.78 185.77 229.34 187.4C227.738 188.941 225.974 190.305 224.08 191.47C224.08 191.47 231.01 194.34 227.67 199.6" stroke="#272F39" stroke-linecap="round" stroke-linejoin="round"/>
<path d="M94.1002 242.31C93.7002 247.15 91.6602 256.39 91.3802 257.67C89.8702 264.73 88.1102 270.41 86.6102 277.47C86.5657 277.871 86.4785 278.267 86.3502 278.65C86.3502 278.65 79.0002 281 78.0002 281.7C77.0002 282.4 71.7502 287.44 71.7102 293.32C71.6702 299.2 71.9902 300.92 73.7102 300.08C75.4302 299.24 75.0102 297.3 75.4502 296.56C75.8902 295.82 77.0802 292.29 77.0802 292.29C77.0802 292.29 77.3702 297.75 78.0802 299.29C78.7902 300.83 79.4502 303.68 80.9502 302.95C82.4502 302.22 81.6102 300.49 81.0802 299.42C80.5502 298.35 82.0802 293.86 82.0802 293.86C82.0802 293.86 83.6402 300.86 84.2702 302.11C84.9002 303.36 86.9402 303.73 87.0502 302.34C87.0642 301.151 86.9299 299.965 86.6502 298.81C86.6281 297.632 86.6715 296.453 86.7802 295.28C86.7802 295.28 89.3002 302.04 90.7802 300.76C92.2602 299.48 90.3802 296.7 90.0602 296.05C89.7402 295.4 89.7602 292.2 90.4102 291.35C91.0602 290.5 94.2902 287.84 94.3002 285.7C94.3102 283.56 94.0202 279.7 94.0202 279.7C94.0202 279.7 101.95 262.2 104.88 255.16C107.81 248.12 110.49 245.5 106.49 245.08C102.86 244.7 99.7502 244.78 96.8102 242.58C96.3102 242.2 94.9202 240.74 94.3002 240.66C93.8802 240.58 94.2102 241 94.1002 242.31Z" fill="white" stroke="#272F39" stroke-linecap="round" stroke-linejoin="round"/>
<path d="M75.7188 284.15C75.7188 284.15 75.8987 290.46 76.4187 291.53C76.9387 292.6 78.6587 293.9 79.5187 291.88C80.1935 289.76 80.6393 287.575 80.8487 285.36C80.8487 285.36 86.4887 290.36 89.7387 284.99" stroke="#272F39" stroke-linecap="round" stroke-linejoin="round"/>
<path d="M145 120.84C145 120.84 152.5 122.14 156 126.38C159.5 130.62 170.87 156.22 170.84 158.51C170.81 160.8 159.25 159.64 159.25 159.64C159.25 159.64 158.07 172.46 153.99 181.84C152.88 184.4 148.89 189.44 144.62 187.56C140.35 185.68 138.5 156.43 138.5 156.43C138.5 156.43 134.44 162.19 131.36 160.65C127.84 158.89 128.48 154.57 131 154.33C133.52 154.09 122.94 144.68 125.55 137.56C128.16 130.44 141.78 118.86 145 120.84Z" fill="white" stroke="#272F39" stroke-linecap="round" stroke-linejoin="round"/>
<path d="M147.001 112.5C147.001 112.5 161.111 111.13 162.531 117.86C163.951 124.59 156.941 128.32 148.751 127.86C140.561 127.4 133.311 128.6 132.421 129.96C131.531 131.32 142.621 132.78 140.271 134.79C138.907 135.979 137.188 136.683 135.381 136.79C135.381 136.79 139.001 137.46 139.001 140C139.001 142.54 137.881 153.89 136.121 154.06C134.361 154.23 130.981 154.34 130.981 154.34C127.637 153.042 124.535 151.193 121.801 148.87C117.631 145.21 115.801 136.74 120.081 131.24C124.361 125.74 127.691 120.5 131.081 116.1C134.471 111.7 137.581 107.1 145.081 105.33C152.581 103.56 156.831 106.21 147.001 112.5Z" fill="#272F39" stroke="#272F39" stroke-linecap="round" stroke-linejoin="round"/>
<path d="M120.119 141.38C120.008 142.883 120.105 144.394 120.409 145.87" stroke="white" stroke-linecap="round" stroke-linejoin="round"/>
<path d="M144.261 120.8C144.261 120.8 159.871 120.8 154.321 124.33C148.771 127.86 139.321 123.18 128.451 128.74C126.62 129.613 124.992 130.86 123.671 132.399C122.35 133.939 121.366 135.738 120.781 137.68" stroke="#A0A3BD" stroke-linecap="round" stroke-linejoin="round"/>
<path d="M136.002 133.45C136.002 133.45 125.942 139.64 125.262 147.29" stroke="#A0A3BD" stroke-linecap="round" stroke-linejoin="round"/>
<path d="M159.24 159.64C159.24 159.64 147.07 160.06 143.52 157.64" stroke="#272F39" stroke-linecap="round" stroke-linejoin="round"/>
<path d="M162.001 149.19C162.001 149.19 153.431 152.57 150.391 147.53" stroke="#272F39" stroke-linecap="round" stroke-linejoin="round"/>
<path d="M151.841 146.37L148.211 148.25" stroke="#272F39" stroke-linecap="round" stroke-linejoin="round"/>
<path d="M158.129 137.87C158.129 137.87 166.039 138.12 166.129 139.38C166.219 140.64 161.559 144.66 161.559 144.66" fill="white"/>
<path d="M158.129 137.87C158.129 137.87 166.039 138.12 166.129 139.38C166.219 140.64 161.559 144.66 161.559 144.66" stroke="#272F39" stroke-linecap="round" stroke-linejoin="round"/>
<path d="M156.901 135.55C157.371 136.55 158.181 137.27 158.711 137.03C159.241 136.79 159.281 135.75 158.811 134.7C158.341 133.65 157.531 132.98 157.001 133.22C156.471 133.46 156.431 134.5 156.901 135.55Z" fill="#272F39"/>
<path d="M150.612 139.56C151.082 140.61 151.882 141.27 152.412 141.04C152.942 140.81 152.992 139.76 152.522 138.7C152.052 137.64 151.242 136.99 150.712 137.22C150.182 137.45 150.142 138.5 150.612 139.56Z" fill="#272F39"/>
<path d="M149.539 132.43C149.539 132.43 145.759 133.15 146.619 138.32L149.539 132.43Z" fill="#272F39" stroke="#272F39" stroke-linecap="round" stroke-linejoin="round"/>
<path d="M152.77 129.67C152.77 129.67 154.58 126.67 157.77 130.24L152.77 129.67Z" fill="#272F39" stroke="#272F39" stroke-linecap="round" stroke-linejoin="round"/>
</svg>
