<svg xmlns="http://www.w3.org/2000/svg" version="1.1" xmlns:xlink="http://www.w3.org/1999/xlink" xmlns:svgjs="http://svgjs.dev/svgjs" width="1920" height="1080" preserveAspectRatio="none" viewBox="0 0 1920 1080"><g mask="url(&quot;#SvgjsMask1204&quot;)" fill="none"><rect width="1920" height="1080" x="0" y="0" fill="rgba(85, 10, 10, 1)"></rect><use xlink:href="#SvgjsG1213" transform="translate(0, 0)" fill="rgba(180, 132, 62, 1)"></use><use xlink:href="#SvgjsG1213" transform="translate(0, 480)" fill="rgba(180, 132, 62, 1)"></use><use xlink:href="#SvgjsG1213" transform="translate(0, 960)" fill="rgba(180, 132, 62, 1)"></use><use xlink:href="#SvgjsG1213" transform="translate(480, 0)" fill="rgba(180, 132, 62, 1)"></use><use xlink:href="#SvgjsG1213" transform="translate(480, 480)" fill="rgba(180, 132, 62, 1)"></use><use xlink:href="#SvgjsG1213" transform="translate(480, 960)" fill="rgba(180, 132, 62, 1)"></use><use xlink:href="#SvgjsG1213" transform="translate(960, 0)" fill="rgba(180, 132, 62, 1)"></use><use xlink:href="#SvgjsG1213" transform="translate(960, 480)" fill="rgba(180, 132, 62, 1)"></use><use xlink:href="#SvgjsG1213" transform="translate(960, 960)" fill="rgba(180, 132, 62, 1)"></use><use xlink:href="#SvgjsG1213" transform="translate(1440, 0)" fill="rgba(180, 132, 62, 1)"></use><use xlink:href="#SvgjsG1213" transform="translate(1440, 480)" fill="rgba(180, 132, 62, 1)"></use><use xlink:href="#SvgjsG1213" transform="translate(1440, 960)" fill="rgba(180, 132, 62, 1)"></use></g><defs><mask id="SvgjsMask1204"><rect width="1920" height="1080" fill="#ffffff"></rect></mask><g id="SvgjsG1206"><path d="M7.713 15.485C3.459 15.485 0 12.025 0 7.768 0 3.513 3.459 0.051 7.713 0.051S15.432 3.513 15.432 7.768c0 4.257-3.465 7.716-7.719 7.717z m0-1.91c3.201 0 5.81-2.604 5.81-5.809 0-3.199-2.61-5.807-5.81-5.807-3.202 0-5.804 2.609-5.804 5.807-0.001 3.206 2.602 5.809 5.804 5.809z"></path><path d="M7.753 8.787a0.574 0.574 0 0 1-0.554-0.042 0.578 0.578 0 0 1-0.259-0.399L6.931 3.862a0.58 0.58 0 0 1 1.162 0v3.478l2.975-1.4a0.578 0.578 0 0 1 0.773 0.275c0.138 0.292 0.011 0.637-0.276 0.774l-3.81 1.798z"></path></g><g id="SvgjsG1211"><path d="M2.524 8.637H0.014V7.308h2.51v1.329zM3.656 4.576L1.884 2.804l0.935-0.935 1.772 1.772-0.935 0.935z m0 6.817l0.935 0.935-1.772 1.773-0.934-0.936 1.771-1.772z m4.997-8.884h-1.33V-0.002h1.33v2.511z m-1.33 10.952h1.33v2.51h-1.33v-2.509zM12.344 4.576l-0.96-0.935 1.796-1.772 0.935 0.935-1.772 1.772z m0 6.792l1.771 1.797-0.935 0.936-1.771-1.774 0.936-0.96z m3.643-4.06v1.329h-2.51V7.308h2.509z"></path><path d="M3.702 7.984a4.184 4.184 0 1 0 8.368 0 4.184 4.184 0 1 0-8.368 0"></path></g><g id="SvgjsG1207"><path d="M15.233 9.431c0.295 0 0.569-0.239 0.61-0.532 0 0 0.056-0.411 0.056-0.899s-0.056-0.899-0.056-0.899c-0.041-0.292-0.315-0.531-0.61-0.53h-1.524c-0.295 0-0.602-0.188-0.681-0.418s-0.188-0.967 0.021-1.176l1.078-1.077c0.209-0.209 0.225-0.565 0.036-0.792l-1.268-1.268c-0.227-0.189-0.583-0.173-0.792 0.036l-1.078 1.077c-0.208 0.209-0.556 0.293-0.772 0.187s-0.822-0.552-0.821-0.847V0.767c0-0.295-0.239-0.569-0.531-0.61 0 0-0.411-0.057-0.9-0.056s-0.899 0.057-0.899 0.056c-0.293 0.04-0.532 0.315-0.532 0.61v1.524c0 0.295-0.188 0.601-0.418 0.681s-0.967 0.188-1.176-0.021l-1.078-1.078C3.689 1.665 3.333 1.649 3.107 1.837l-1.268 1.268c-0.189 0.227-0.173 0.583 0.036 0.792l1.077 1.078c0.209 0.209 0.293 0.556 0.187 0.772s-0.552 0.822-0.847 0.822H0.767c-0.295 0-0.569 0.239-0.61 0.531 0 0-0.057 0.411-0.056 0.899s0.057 0.899 0.056 0.9c0.04 0.293 0.315 0.532 0.61 0.532h1.525c0.295 0 0.601 0.188 0.681 0.417 0.079 0.23 0.188 0.967-0.02 1.176l-1.078 1.077C1.667 12.311 1.651 12.667 1.84 12.893l1.267 1.268c0.227 0.189 0.583 0.173 0.792-0.036l1.077-1.077c0.209-0.208 0.556-0.292 0.772-0.187s0.821 0.553 0.822 0.848v1.524c0 0.295 0.239 0.569 0.532 0.61 0 0 0.411 0.057 0.899 0.057s0.899-0.056 0.899-0.057c0.293-0.04 0.531-0.315 0.532-0.609v-1.524c0-0.295 0.188-0.602 0.418-0.681 0.23-0.079 0.967-0.188 1.176 0.021l1.077 1.077c0.209 0.209 0.565 0.225 0.792 0.036l1.268-1.267c0.189-0.227 0.173-0.583-0.036-0.792l-1.078-1.077c-0.209-0.209-0.293-0.557-0.186-0.773 0.106-0.216 0.552-0.822 0.847-0.822h1.525zM8 10.892c-1.597 0-2.891-1.294-2.891-2.892 0-1.596 1.295-2.891 2.891-2.891S10.892 6.404 10.892 8 9.597 10.892 8 10.892z"></path></g><g id="SvgjsG1210"><path d="M13.828 10.843V16H9.151V13.513c0-1.275-1.154-1.693-1.154-1.693s-1.154 0.418-1.154 1.693V16H2.24V10.843l3.881-1.874V3.994L8.032 0l1.914 3.994v4.975L13.828 10.843zM7.374 5.885v1.052h1.311v-1.053c0-1.056-0.656-1.402-0.656-1.401s-0.655 0.346-0.655 1.401z"></path></g><g id="SvgjsG1209"><path d="M5.741 11.464a1.129 1.129 0 0 0 1.129-1.128 1.129 1.129 0 0 0-2.258 0 1.129 1.129 0 0 0 1.129 1.128z m9.513-1.61a0.897 0.897 0 0 1 0.899 0.89l0.004 2.371H9.149V9.854h6.105z"></path><path d="M1.623 15.405h14.538V13.896H3.132V8.18L16.161 2.293V0.727L0 8.022v1.57l1.623-0.728z"></path><path d="M7.424 12.003h-2.025a0.558 0.558 0 0 0-0.556 0.558c0 0.304 0.249 0.554 0.556 0.554h2.578a0.557 0.557 0 0 0 0.556-0.554V10.327a0.555 0.555 0 0 0-1.111 0l0.002 1.676z"></path></g><g id="SvgjsG1205"><path d="M0.267 14.413h15.466V16H0.267z m0.632-1.535h13.998v0.872H0.899z m1.139-7.74h2.352v7.056h-2.352z m4.693 0h2.352v7.056h-2.352z m4.513 0h2.352v7.056H11.244zM0 3.595L8 0l8 3.595-0.007 0.927L0 4.535z"></path></g><g id="SvgjsG1212"><path d="M13.644 4.046L7.942 1.722 2.24 4.046 0.24 9.125H1.425v5.035h4.147v-4.739h4.739v4.739h4.146v-5.035h1.185L13.646 4.046h-0.002z m-4.518 3.006h-2.369v-2.369h2.369v2.369z" fill-rule="evenodd"></path></g><g id="SvgjsG1208"><path d="M8.312 8.242l0 0.521c0.492-0.069 0.443-0.509 0-0.52v-0.001z m-0.51-0.627V7.155c-0.365 0.064-0.358 0.454 0 0.46z"></path><path d="M8.055 5.946c-1.128 0-2.044 0.915-2.044 2.043 0 1.129 0.915 2.044 2.045 2.044 1.129 0 2.043-0.915 2.043-2.044 0-1.128-0.915-2.043-2.043-2.043l-0.001 0z m0.251 3.336v0.364h-0.507v-0.37c-0.29-0.043-0.822-0.323-0.855-0.924h0.534c0.034 0.154 0.078 0.34 0.321 0.409l-0.001-0.605c-0.334-0.048-0.814-0.194-0.814-0.73 0-0.602 0.666-0.789 0.813-0.789v-0.364h0.502v0.364c0.338 0.02 0.83 0.302 0.829 0.84h-0.528c-0.014-0.16-0.137-0.317-0.296-0.327v0.554c0.403 0.041 0.877 0.195 0.877 0.738 0 0.473-0.475 0.818-0.877 0.84h0.002z"></path><path d="M0 11.93h16V4H0v7.93z m1.508-1.508V5.508h12.984V10.422H1.508z"></path></g><g id="SvgjsG1213"><use xlink:href="#SvgjsG1205" transform="translate(0, 0) scale(2)" fill="rgba(180, 132, 62, 1)"></use><use xlink:href="#SvgjsG1206" transform="translate(0, 48) scale(2)" fill="rgba(180, 132, 62, 1)"></use><use xlink:href="#SvgjsG1205" transform="translate(0, 96) scale(2)" fill="rgba(180, 132, 62, 1)"></use><use xlink:href="#SvgjsG1207" transform="translate(0, 144) scale(2)" fill="rgba(180, 132, 62, 1)"></use><use xlink:href="#SvgjsG1208" transform="translate(0, 192) scale(2)" fill="rgba(180, 132, 62, 1)"></use><use xlink:href="#SvgjsG1209" transform="translate(0, 240) scale(2)" fill="rgba(180, 132, 62, 1)"></use><use xlink:href="#SvgjsG1208" transform="translate(0, 288) scale(2)" fill="rgba(180, 132, 62, 1)"></use><use xlink:href="#SvgjsG1209" transform="translate(0, 336) scale(2)" fill="rgba(180, 132, 62, 1)"></use><use xlink:href="#SvgjsG1210" transform="translate(0, 384) scale(2)" fill="rgba(180, 132, 62, 1)"></use><use xlink:href="#SvgjsG1208" transform="translate(0, 432) scale(2)" fill="rgba(180, 132, 62, 1)"></use><use xlink:href="#SvgjsG1211" transform="translate(48, 0) scale(2)" fill="rgba(180, 132, 62, 1)"></use><use xlink:href="#SvgjsG1209" transform="translate(48, 48) scale(2)" fill="rgba(180, 132, 62, 1)"></use><use xlink:href="#SvgjsG1208" transform="translate(48, 96) scale(2)" fill="rgba(180, 132, 62, 1)"></use><use xlink:href="#SvgjsG1206" transform="translate(48, 144) scale(2)" fill="rgba(180, 132, 62, 1)"></use><use xlink:href="#SvgjsG1206" transform="translate(48, 192) scale(2)" fill="rgba(180, 132, 62, 1)"></use><use xlink:href="#SvgjsG1205" transform="translate(48, 240) scale(2)" fill="rgba(180, 132, 62, 1)"></use><use xlink:href="#SvgjsG1210" transform="translate(48, 288) scale(2)" fill="rgba(180, 132, 62, 1)"></use><use xlink:href="#SvgjsG1208" transform="translate(48, 336) scale(2)" fill="rgba(180, 132, 62, 1)"></use><use xlink:href="#SvgjsG1211" transform="translate(48, 384) scale(2)" fill="rgba(180, 132, 62, 1)"></use><use xlink:href="#SvgjsG1206" transform="translate(48, 432) scale(2)" fill="rgba(180, 132, 62, 1)"></use><use xlink:href="#SvgjsG1206" transform="translate(96, 0) scale(2)" fill="rgba(180, 132, 62, 1)"></use><use xlink:href="#SvgjsG1211" transform="translate(96, 48) scale(2)" fill="rgba(180, 132, 62, 1)"></use><use xlink:href="#SvgjsG1205" transform="translate(96, 96) scale(2)" fill="rgba(180, 132, 62, 1)"></use><use xlink:href="#SvgjsG1206" transform="translate(96, 144) scale(2)" fill="rgba(180, 132, 62, 1)"></use><use xlink:href="#SvgjsG1211" transform="translate(96, 192) scale(2)" fill="rgba(180, 132, 62, 1)"></use><use xlink:href="#SvgjsG1205" transform="translate(96, 240) scale(2)" fill="rgba(180, 132, 62, 1)"></use><use xlink:href="#SvgjsG1205" transform="translate(96, 288) scale(2)" fill="rgba(180, 132, 62, 1)"></use><use xlink:href="#SvgjsG1211" transform="translate(96, 336) scale(2)" fill="rgba(180, 132, 62, 1)"></use><use xlink:href="#SvgjsG1206" transform="translate(96, 384) scale(2)" fill="rgba(180, 132, 62, 1)"></use><use xlink:href="#SvgjsG1208" transform="translate(96, 432) scale(2)" fill="rgba(180, 132, 62, 1)"></use><use xlink:href="#SvgjsG1209" transform="translate(144, 0) scale(2)" fill="rgba(180, 132, 62, 1)"></use><use xlink:href="#SvgjsG1210" transform="translate(144, 48) scale(2)" fill="rgba(180, 132, 62, 1)"></use><use xlink:href="#SvgjsG1209" transform="translate(144, 96) scale(2)" fill="rgba(180, 132, 62, 1)"></use><use xlink:href="#SvgjsG1207" transform="translate(144, 144) scale(2)" fill="rgba(180, 132, 62, 1)"></use><use xlink:href="#SvgjsG1209" transform="translate(144, 192) scale(2)" fill="rgba(180, 132, 62, 1)"></use><use xlink:href="#SvgjsG1212" transform="translate(144, 240) scale(2)" fill="rgba(180, 132, 62, 1)"></use><use xlink:href="#SvgjsG1206" transform="translate(144, 288) scale(2)" fill="rgba(180, 132, 62, 1)"></use><use xlink:href="#SvgjsG1210" transform="translate(144, 336) scale(2)" fill="rgba(180, 132, 62, 1)"></use><use xlink:href="#SvgjsG1210" transform="translate(144, 384) scale(2)" fill="rgba(180, 132, 62, 1)"></use><use xlink:href="#SvgjsG1209" transform="translate(144, 432) scale(2)" fill="rgba(180, 132, 62, 1)"></use><use xlink:href="#SvgjsG1208" transform="translate(192, 0) scale(2)" fill="rgba(180, 132, 62, 1)"></use><use xlink:href="#SvgjsG1212" transform="translate(192, 48) scale(2)" fill="rgba(180, 132, 62, 1)"></use><use xlink:href="#SvgjsG1205" transform="translate(192, 96) scale(2)" fill="rgba(180, 132, 62, 1)"></use><use xlink:href="#SvgjsG1208" transform="translate(192, 144) scale(2)" fill="rgba(180, 132, 62, 1)"></use><use xlink:href="#SvgjsG1209" transform="translate(192, 192) scale(2)" fill="rgba(180, 132, 62, 1)"></use><use xlink:href="#SvgjsG1205" transform="translate(192, 240) scale(2)" fill="rgba(180, 132, 62, 1)"></use><use xlink:href="#SvgjsG1209" transform="translate(192, 288) scale(2)" fill="rgba(180, 132, 62, 1)"></use><use xlink:href="#SvgjsG1210" transform="translate(192, 336) scale(2)" fill="rgba(180, 132, 62, 1)"></use><use xlink:href="#SvgjsG1206" transform="translate(192, 384) scale(2)" fill="rgba(180, 132, 62, 1)"></use><use xlink:href="#SvgjsG1205" transform="translate(192, 432) scale(2)" fill="rgba(180, 132, 62, 1)"></use><use xlink:href="#SvgjsG1208" transform="translate(240, 0) scale(2)" fill="rgba(180, 132, 62, 1)"></use><use xlink:href="#SvgjsG1206" transform="translate(240, 48) scale(2)" fill="rgba(180, 132, 62, 1)"></use><use xlink:href="#SvgjsG1206" transform="translate(240, 96) scale(2)" fill="rgba(180, 132, 62, 1)"></use><use xlink:href="#SvgjsG1209" transform="translate(240, 144) scale(2)" fill="rgba(180, 132, 62, 1)"></use><use xlink:href="#SvgjsG1211" transform="translate(240, 192) scale(2)" fill="rgba(180, 132, 62, 1)"></use><use xlink:href="#SvgjsG1207" transform="translate(240, 240) scale(2)" fill="rgba(180, 132, 62, 1)"></use><use xlink:href="#SvgjsG1207" transform="translate(240, 288) scale(2)" fill="rgba(180, 132, 62, 1)"></use><use xlink:href="#SvgjsG1209" transform="translate(240, 336) scale(2)" fill="rgba(180, 132, 62, 1)"></use><use xlink:href="#SvgjsG1207" transform="translate(240, 384) scale(2)" fill="rgba(180, 132, 62, 1)"></use><use xlink:href="#SvgjsG1206" transform="translate(240, 432) scale(2)" fill="rgba(180, 132, 62, 1)"></use><use xlink:href="#SvgjsG1209" transform="translate(288, 0) scale(2)" fill="rgba(180, 132, 62, 1)"></use><use xlink:href="#SvgjsG1210" transform="translate(288, 48) scale(2)" fill="rgba(180, 132, 62, 1)"></use><use xlink:href="#SvgjsG1211" transform="translate(288, 96) scale(2)" fill="rgba(180, 132, 62, 1)"></use><use xlink:href="#SvgjsG1209" transform="translate(288, 144) scale(2)" fill="rgba(180, 132, 62, 1)"></use><use xlink:href="#SvgjsG1208" transform="translate(288, 192) scale(2)" fill="rgba(180, 132, 62, 1)"></use><use xlink:href="#SvgjsG1209" transform="translate(288, 240) scale(2)" fill="rgba(180, 132, 62, 1)"></use><use xlink:href="#SvgjsG1211" transform="translate(288, 288) scale(2)" fill="rgba(180, 132, 62, 1)"></use><use xlink:href="#SvgjsG1206" transform="translate(288, 336) scale(2)" fill="rgba(180, 132, 62, 1)"></use><use xlink:href="#SvgjsG1210" transform="translate(288, 384) scale(2)" fill="rgba(180, 132, 62, 1)"></use><use xlink:href="#SvgjsG1207" transform="translate(288, 432) scale(2)" fill="rgba(180, 132, 62, 1)"></use><use xlink:href="#SvgjsG1211" transform="translate(336, 0) scale(2)" fill="rgba(180, 132, 62, 1)"></use><use xlink:href="#SvgjsG1207" transform="translate(336, 48) scale(2)" fill="rgba(180, 132, 62, 1)"></use><use xlink:href="#SvgjsG1207" transform="translate(336, 96) scale(2)" fill="rgba(180, 132, 62, 1)"></use><use xlink:href="#SvgjsG1206" transform="translate(336, 144) scale(2)" fill="rgba(180, 132, 62, 1)"></use><use xlink:href="#SvgjsG1211" transform="translate(336, 192) scale(2)" fill="rgba(180, 132, 62, 1)"></use><use xlink:href="#SvgjsG1209" transform="translate(336, 240) scale(2)" fill="rgba(180, 132, 62, 1)"></use><use xlink:href="#SvgjsG1209" transform="translate(336, 288) scale(2)" fill="rgba(180, 132, 62, 1)"></use><use xlink:href="#SvgjsG1211" transform="translate(336, 336) scale(2)" fill="rgba(180, 132, 62, 1)"></use><use xlink:href="#SvgjsG1205" transform="translate(336, 384) scale(2)" fill="rgba(180, 132, 62, 1)"></use><use xlink:href="#SvgjsG1211" transform="translate(336, 432) scale(2)" fill="rgba(180, 132, 62, 1)"></use><use xlink:href="#SvgjsG1207" transform="translate(384, 0) scale(2)" fill="rgba(180, 132, 62, 1)"></use><use xlink:href="#SvgjsG1210" transform="translate(384, 48) scale(2)" fill="rgba(180, 132, 62, 1)"></use><use xlink:href="#SvgjsG1209" transform="translate(384, 96) scale(2)" fill="rgba(180, 132, 62, 1)"></use><use xlink:href="#SvgjsG1211" transform="translate(384, 144) scale(2)" fill="rgba(180, 132, 62, 1)"></use><use xlink:href="#SvgjsG1206" transform="translate(384, 192) scale(2)" fill="rgba(180, 132, 62, 1)"></use><use xlink:href="#SvgjsG1205" transform="translate(384, 240) scale(2)" fill="rgba(180, 132, 62, 1)"></use><use xlink:href="#SvgjsG1210" transform="translate(384, 288) scale(2)" fill="rgba(180, 132, 62, 1)"></use><use xlink:href="#SvgjsG1209" transform="translate(384, 336) scale(2)" fill="rgba(180, 132, 62, 1)"></use><use xlink:href="#SvgjsG1207" transform="translate(384, 384) scale(2)" fill="rgba(180, 132, 62, 1)"></use><use xlink:href="#SvgjsG1208" transform="translate(384, 432) scale(2)" fill="rgba(180, 132, 62, 1)"></use><use xlink:href="#SvgjsG1206" transform="translate(432, 0) scale(2)" fill="rgba(180, 132, 62, 1)"></use><use xlink:href="#SvgjsG1210" transform="translate(432, 48) scale(2)" fill="rgba(180, 132, 62, 1)"></use><use xlink:href="#SvgjsG1209" transform="translate(432, 96) scale(2)" fill="rgba(180, 132, 62, 1)"></use><use xlink:href="#SvgjsG1205" transform="translate(432, 144) scale(2)" fill="rgba(180, 132, 62, 1)"></use><use xlink:href="#SvgjsG1210" transform="translate(432, 192) scale(2)" fill="rgba(180, 132, 62, 1)"></use><use xlink:href="#SvgjsG1210" transform="translate(432, 240) scale(2)" fill="rgba(180, 132, 62, 1)"></use><use xlink:href="#SvgjsG1211" transform="translate(432, 288) scale(2)" fill="rgba(180, 132, 62, 1)"></use><use xlink:href="#SvgjsG1207" transform="translate(432, 336) scale(2)" fill="rgba(180, 132, 62, 1)"></use><use xlink:href="#SvgjsG1212" transform="translate(432, 384) scale(2)" fill="rgba(180, 132, 62, 1)"></use><use xlink:href="#SvgjsG1205" transform="translate(432, 432) scale(2)" fill="rgba(180, 132, 62, 1)"></use></g></defs></svg>