<svg xmlns="http://www.w3.org/2000/svg" viewBox="0 0 100 100" id="house-boat"><path fill="#594454" d="M81.2 63.5h-9.8c3.1-1.6 5.3-4.8 5.3-8.5 0-1.5-.4-3.1-1.1-4.4 0-.1-.1-.3-.2-.3-.2-.1-.3-.1-.5 0h-.1l-.1.1c-.5.9-1.2 1.6-1.9 2.3.2-4.3 1.9-8.4 5-11.5.3.5.5 1.2.5 1.8 0 1.3-.7 2.5-1.8 3.1-.2.1-.3.4-.2.7.1.2.3.3.4.3.1 0 .2 0 .2-.1 1.4-.8 2.3-2.3 2.3-4 0-.8-.2-1.5-.6-2.1h.1l.9.6c.6.6 1 1.5 1 2.4 0 .3.2.5.5.5s.5-.2.5-.5c0-1.2-.5-2.3-1.3-3.1-.5-.5-1.1-.9-1.8-1.1 0-.1-.1-.1-.1-.1-2-1.6-4.7-2.4-7.3-1.9-.3 0-.5.3-.4.6 0 .3.3.5.6.4 1.8-.3 3.7 0 5.3.9-.6-.2-1.2-.3-1.8-.3-2.3 0-4.4 1.3-5.4 3.4-.1.2 0 .5.2.7h.2c.2 0 .4-.1.5-.3.8-1.7 2.6-2.8 4.5-2.8.5 0 .9.1 1.4.2-5.1 2.8-8.4 8.1-8.4 14.1h-1v-12c1.1-.2 2-1.2 2-2.5 0-.3-.2-.5-.5-.5s-.5.2-.5.5c0 .8-.6 1.4-1.4 1.5-1.8-.7-3.7-1.3-5.6-1.7v-1.7c0-.2-.2-.4-.4-.5-6.9-1.5-14.3-1.5-21.2 0-.2 0-.4.3-.4.5v1.7c-1.9.5-3.8 1-5.6 1.7-.8 0-1.4-.7-1.4-1.5 0-.3-.2-.5-.5-.5s-.5.2-.5.5c0 1.2.9 2.2 2 2.4v12h-1c0-6-3.2-11.3-8.4-14.1.4-.1.9-.2 1.4-.2 1.9 0 3.7 1.1 4.5 2.8.1.2.3.3.5.3h.2c.2-.1.4-.4.2-.7-1-2.1-3.1-3.4-5.4-3.4-.6 0-1.2.1-1.8.3 1.6-.9 3.4-1.2 5.3-.9.3 0 .5-.1.6-.4s-.1-.5-.4-.6c-2.6-.4-5.3.3-7.3 1.9-.1 0-.1.1-.1.1-.7.2-1.3.6-1.8 1.1-.8.8-1.3 1.9-1.3 3.1 0 .3.2.5.5.5s.5-.2.5-.5c0-.9.4-1.8 1-2.4.3-.3.5-.4.9-.6h.1c-.3.6-.6 1.4-.6 2.1 0 1.6.9 3.2 2.3 4 .1 0 .2.1.2.1.2 0 .3-.1.4-.3.1-.2 0-.5-.2-.7-1.1-.6-1.8-1.8-1.8-3.1 0-.7.2-1.3.5-1.8 3 3.1 4.8 7.2 5 11.5-.8-.6-1.4-1.4-1.9-2.2 0 0 0-.1-.1-.1l-.1-.1h-.5l-.1.1-.1.1c-.8 1.4-1.2 3-1.2 4.6 0 3.7 2.2 6.9 5.3 8.5h-9.8c-.3 0-.5.2-.5.5s.2.5.5.5h63c.3 0 .5-.2.5-.5-.1-.3-.3-.5-.6-.5zm-11.6-14h2.6c-.1.7-.3 1.3-.3 2H69.1c.1-.7.3-1.4.5-2zm1.4-3h2.1c-.3.7-.5 1.3-.7 2H70c.3-.7.6-1.4 1-2zm4.3-4h-.6c.4-.3.8-.6 1.2-.8-.2.2-.4.5-.6.8zm-1.8 1h1.1c-.4.6-.8 1.3-1.1 2h-1.8c.6-.7 1.2-1.4 1.8-2zm-4.6 9h3v.9c-.9.5-1.9.9-3 1-.1-.6-.1-1.3 0-1.9zm-29.2-14c6.5-1.4 13.5-1.4 20 0v1c-3.3-.7-6.6-1.1-10-1.1-3.4 0-6.7.4-10 1.1v-1zm-6 3.9c5.1-1.9 10.5-2.9 16-2.9s10.9 1 16 2.9v12.1h-3v-6c0-1.7-1.3-3-3-3s-3 1.3-3 3v6h-3v-8c0-2.2-1.8-4-4-4s-4 1.8-4 4v8h-3v-6c0-1.7-1.3-3-3-3s-3 1.3-3 3v6h-3V42.4zm30.5 15.1c.8 0 1.5.7 1.5 1.5s-.7 1.5-1.5 1.5-1.5-.7-1.5-1.5.7-1.5 1.5-1.5zm-2.5-3h-4v-6c0-1.1.9-2 2-2s2 .9 2 2v6zm-6.5 3c.8 0 1.5.7 1.5 1.5s-.7 1.5-1.5 1.5-1.5-.7-1.5-1.5.7-1.5 1.5-1.5zm-2.5-3h-6v-8c0-1.7 1.3-3 3-3s3 1.3 3 3v8zm-8.5 3c.8 0 1.5.7 1.5 1.5s-.7 1.5-1.5 1.5-1.5-.7-1.5-1.5.7-1.5 1.5-1.5zm-2.5-3h-4v-6c0-1.1.9-2 2-2s2 .9 2 2v6zm-6.5 3c.8 0 1.5.7 1.5 1.5s-.7 1.5-1.5 1.5-1.5-.7-1.5-1.5.7-1.5 1.5-1.5zm-5.7-9h-2.4c-.2-.7-.4-1.3-.7-2h2.1c.4.6.7 1.3 1 2zm-2.2 1h2.6c.2.6.4 1.3.5 2H27.6c0-.7-.1-1.3-.3-2zm.5-4H26c-.3-.7-.7-1.4-1.1-2H26c.6.6 1.2 1.3 1.8 2zm-3-3h-.6c-.2-.3-.4-.6-.6-.8.4.2.8.5 1.2.8zm2.9 10h2.9c.1.6.1 1.3.1 1.9-1.1-.1-2.1-.5-3-1v-.9zm4.5 11c-4.7 0-8.5-3.8-8.5-8.5 0-1.1.2-2.3.7-3.3.7.9 1.5 1.7 2.4 2.3l.2.2c1.2.7 2.6 1.2 4 1.3h3.6v1.1c-1.1.2-2 1.2-2 2.4 0 1.4 1.1 2.5 2.5 2.5s2.5-1.1 2.5-2.5c0-1.2-.9-2.2-2-2.4v-1.1h8v1.1c-1.1.2-2 1.2-2 2.4 0 1.4 1.1 2.5 2.5 2.5s2.5-1.1 2.5-2.5c0-1.2-.9-2.2-2-2.4v-1.1h10v1.1c-1.1.2-2 1.2-2 2.4 0 1.4 1.1 2.5 2.5 2.5s2.5-1.1 2.5-2.5c0-1.2-.9-2.2-2-2.4v-1.1h8v1.1c-1.1.2-2 1.2-2 2.4 0 1.4 1.1 2.5 2.5 2.5s2.5-1.1 2.5-2.5c0-1.2-.9-2.2-2-2.4v-1.1h3.6c2.7-.2 5.1-1.6 6.7-3.7.4 1 .7 2.2.7 3.3 0 4.7-3.8 8.5-8.5 8.5H32.2zm-14 4h3c.3 0 .5-.2.5-.5s-.2-.5-.5-.5h-3c-.3 0-.5.2-.5.5s.3.5.5.5zm37 0c.3 0 .5-.2.5-.5s-.2-.5-.5-.5h-5c-.3 0-.5.2-.5.5s.2.5.5.5h5zm26 0c.3 0 .5-.2.5-.5s-.2-.5-.5-.5h-23c-.3 0-.5.2-.5.5s.2.5.5.5h23zm-34-1h-23c-.3 0-.5.2-.5.5s.2.5.5.5h23c.3 0 .5-.2.5-.5s-.2-.5-.5-.5zm13 13h21c.3 0 .5-.2.5-.5s-.2-.5-.5-.5h-21c-.3 0-.5.2-.5.5s.2.5.5.5zm-34-1c-.3 0-.5.2-.5.5s.2.5.5.5h5c.3 0 .5-.2.5-.5s-.2-.5-.5-.5h-5zm-2.5.5c0-.3-.2-.5-.5-.5h-5c-.3 0-.5.2-.5.5s.2.5.5.5h5c.3 0 .5-.2.5-.5zm10 0c0 .3.2.5.5.5h23c.3 0 .5-.2.5-.5s-.2-.5-.5-.5h-23c-.3 0-.5.2-.5.5zm36-3c0-.3-.2-.5-.5-.5h-23c-.3 0-.5.2-.5.5s.2.5.5.5h23c.3 0 .5-.2.5-.5zm-39-6c0 .3.2.5.5.5h40c.3 0 .5-.2.5-.5s-.2-.5-.5-.5h-40c-.2 0-.5.2-.5.5zm-12.5.5h10c.3 0 .5-.2.5-.5s-.2-.5-.5-.5h-10c-.3 0-.5.2-.5.5s.3.5.5.5zm63-1h-7c-.3 0-.5.2-.5.5s.2.5.5.5h7c.3 0 .5-.2.5-.5s-.2-.5-.5-.5zm-63 4h5c.3 0 .5-.2.5-.5s-.2-.5-.5-.5h-5c-.3 0-.5.2-.5.5s.3.5.5.5zm61 3c.3 0 .5-.2.5-.5s-.2-.5-.5-.5h-7c-.3 0-.5.2-.5.5s.2.5.5.5h7zm-41 0h5c.3 0 .5-.2.5-.5s-.2-.5-.5-.5h-5c-.3 0-.5.2-.5.5s.3.5.5.5zm25-3c.3 0 .5-.2.5-.5s-.2-.5-.5-.5h-9c-.3 0-.5.2-.5.5s.2.5.5.5h9zM51.7 73c0-.3-.2-.5-.5-.5h-25c-.3 0-.5.2-.5.5s.2.5.5.5h25c.3 0 .5-.2.5-.5zm29.5-.5h-15c-.3 0-.5.2-.5.5s.2.5.5.5h14.9c.3 0 .5-.2.5-.5s-.1-.5-.4-.5zm-63 4h17c.3 0 .5-.2.5-.5s-.2-.5-.5-.5h-17c-.3 0-.5.2-.5.5s.3.5.5.5zm35 5h-23c-.3 0-.5.2-.5.5s.2.5.5.5h23c.3 0 .5-.2.5-.5s-.2-.5-.5-.5zm-26 0h-7c-.3 0-.5.2-.5.5s.2.5.5.5h7c.3 0 .5-.2.5-.5s-.2-.5-.5-.5zm34 0h-5c-.3 0-.5.2-.5.5s.2.5.5.5h5c.3 0 .5-.2.5-.5s-.2-.5-.5-.5zm20 0h-17c-.3 0-.5.2-.5.5s.2.5.5.5h17c.3 0 .5-.2.5-.5s-.2-.5-.5-.5z"></path></svg>